<svg width="20" height="22" viewBox="0 0 20 22" fill="none" xmlns="http://www.w3.org/2000/svg">
<path d="M2.81107 19.7951L3.25191 19.1883L2.81107 19.7951ZM1.70491 18.6889L2.31168 18.2481L1.70491 18.6889ZM17.7951 18.6889L17.1883 18.2481L17.7951 18.6889ZM16.6889 19.7951L17.1298 20.4018L16.6889 19.7951ZM16.6889 3.70492L17.1298 3.09815L16.6889 3.70492ZM17.7951 4.81107L17.1883 5.25191L17.7951 4.81107ZM2.81107 3.70492L3.25191 4.31168H3.25191L2.81107 3.70492ZM1.70491 4.81107L2.31168 5.25191L1.70491 4.81107ZM16.9678 14.8116L16.8505 14.0708H16.8505L16.9678 14.8116ZM12.8116 18.9678L12.0708 18.8505V18.8505L12.8116 18.9678ZM12 3.75C12 4.16421 12.3358 4.5 12.75 4.5C13.1642 4.5 13.5 4.16421 13.5 3.75H12ZM13.5 0.75C13.5 0.335786 13.1642 0 12.75 0C12.3358 0 12 0.335786 12 0.75H13.5ZM6 3.75C6 4.16421 6.33579 4.5 6.75 4.5C7.16421 4.5 7.5 4.16421 7.5 3.75H6ZM7.5 0.75C7.5 0.335786 7.16421 0 6.75 0C6.33579 0 6 0.335786 6 0.75H7.5ZM18.7211 14.75L19.4706 14.7757L18.7211 14.75ZM12.75 20.7211L12.7757 21.4706L12.75 20.7211ZM9.75 20C7.85843 20 6.49999 19.999 5.44804 19.885C4.41013 19.7725 3.75992 19.5574 3.25191 19.1883L2.37023 20.4018C3.17656 20.9877 4.12094 21.25 5.28648 21.3763C6.43798 21.501 7.89184 21.5 9.75 21.5V20ZM0 11.75C0 13.6082 -0.00102943 15.062 0.123728 16.2135C0.250006 17.3791 0.512324 18.3234 1.09815 19.1298L2.31168 18.2481C1.94259 17.7401 1.72745 17.0899 1.615 16.052C1.50103 15 1.5 13.6416 1.5 11.75H0ZM3.25191 19.1883C2.89111 18.9262 2.57382 18.6089 2.31168 18.2481L1.09815 19.1298C1.45281 19.6179 1.88209 20.0472 2.37023 20.4018L3.25191 19.1883ZM17.1883 18.2481C16.9262 18.6089 16.6089 18.9262 16.2481 19.1883L17.1298 20.4018C17.6179 20.0472 18.0472 19.6179 18.4018 19.1298L17.1883 18.2481ZM19.5 11.75C19.5 9.89184 19.501 8.43798 19.3763 7.28648C19.25 6.12094 18.9877 5.17656 18.4018 4.37023L17.1883 5.25191C17.5574 5.75992 17.7725 6.41013 17.885 7.44804C17.999 8.49999 18 9.85843 18 11.75H19.5ZM16.2481 4.31168C16.6089 4.57382 16.9262 4.89111 17.1883 5.25191L18.4018 4.37023C18.0472 3.88209 17.6179 3.45281 17.1298 3.09815L16.2481 4.31168ZM1.5 11.75C1.5 9.85843 1.50103 8.49999 1.615 7.44804C1.72745 6.41013 1.94259 5.75992 2.31168 5.25191L1.09815 4.37023C0.512324 5.17656 0.250006 6.12094 0.123728 7.28648C-0.00102943 8.43798 0 9.89184 0 11.75H1.5ZM2.37023 3.09815C1.88209 3.45281 1.45281 3.88209 1.09815 4.37023L2.31168 5.25191C2.57382 4.89111 2.89111 4.57382 3.25191 4.31168L2.37023 3.09815ZM16.8505 14.0708C14.3901 14.4605 12.4605 16.3901 12.0708 18.8505L13.5523 19.0852C13.8404 17.2666 15.2666 15.8404 17.0852 15.5523L16.8505 14.0708ZM7.5 3.75V2.77893H6V3.75H7.5ZM7.5 2.77893V0.75H6V2.77893H7.5ZM9.75 2C8.58522 2 7.58424 1.99991 6.72432 2.02937L6.77568 3.52849C7.60445 3.50009 8.57692 3.5 9.75 3.5V2ZM6.72432 2.02937C4.85087 2.09356 3.4739 2.2963 2.37023 3.09815L3.25191 4.31168C3.95746 3.79907 4.92075 3.59204 6.77568 3.52849L6.72432 2.02937ZM13.5 3.75V2.77893H12V3.75H13.5ZM13.5 2.77893V0.75H12V2.77893H13.5ZM9.75 3.5C10.9231 3.5 11.8956 3.50009 12.7243 3.52849L12.7757 2.02937C11.9158 1.99991 10.9148 2 9.75 2V3.5ZM12.7243 3.52849C14.5792 3.59204 15.5425 3.79907 16.2481 4.31168L17.1298 3.09815C16.0261 2.2963 14.6491 2.09356 12.7757 2.02937L12.7243 3.52849ZM18.7211 14C17.8388 14 17.3079 13.9984 16.8505 14.0708L17.0852 15.5523C17.397 15.5029 17.7838 15.5 18.7211 15.5L18.7211 14ZM18 11.75C18 12.9231 17.9999 13.8956 17.9715 14.7243L19.4706 14.7757C19.5001 13.9158 19.5 12.9148 19.5 11.75H18ZM17.9715 14.7243C17.908 16.5792 17.7009 17.5425 17.1883 18.2481L18.4018 19.1298C19.2037 18.0261 19.4064 16.6491 19.4706 14.7757L17.9715 14.7243ZM13.5 20.7211C13.5 19.7838 13.5029 19.397 13.5523 19.0852L12.0708 18.8505C11.9984 19.3079 12 19.8388 12 20.7211L13.5 20.7211ZM9.75 21.5C10.9148 21.5 11.9158 21.5001 12.7757 21.4706L12.7243 19.9715C11.8956 19.9999 10.9231 20 9.75 20V21.5ZM12.7757 21.4706C14.6491 21.4064 16.0261 21.2037 17.1298 20.4018L16.2481 19.1883C15.5425 19.7009 14.5792 19.908 12.7243 19.9715L12.7757 21.4706Z" fill="#0056BD"/>
<path d="M5.75 7.75C5.75 8.30228 5.30228 8.75 4.75 8.75C4.19772 8.75 3.75 8.30228 3.75 7.75C3.75 7.19772 4.19772 6.75 4.75 6.75C5.30228 6.75 5.75 7.19772 5.75 7.75Z" fill="#0056BD"/>
<path d="M5.75 11.75C5.75 12.3023 5.30228 12.75 4.75 12.75C4.19772 12.75 3.75 12.3023 3.75 11.75C3.75 11.1977 4.19772 10.75 4.75 10.75C5.30228 10.75 5.75 11.1977 5.75 11.75Z" fill="#0056BD"/>
<path d="M10.75 7.75C10.75 8.30228 10.3023 8.75 9.75 8.75C9.19772 8.75 8.75 8.30228 8.75 7.75C8.75 7.19772 9.19772 6.75 9.75 6.75C10.3023 6.75 10.75 7.19772 10.75 7.75Z" fill="#0056BD"/>
<path d="M10.75 11.75C10.75 12.3023 10.3023 12.75 9.75 12.75C9.19772 12.75 8.75 12.3023 8.75 11.75C8.75 11.1977 9.19772 10.75 9.75 10.75C10.3023 10.75 10.75 11.1977 10.75 11.75Z" fill="#0056BD"/>
<path d="M10.75 15.75C10.75 16.3023 10.3023 16.75 9.75 16.75C9.19772 16.75 8.75 16.3023 8.75 15.75C8.75 15.1977 9.19772 14.75 9.75 14.75C10.3023 14.75 10.75 15.1977 10.75 15.75Z" fill="#0056BD"/>
<path d="M15.75 7.75C15.75 8.30228 15.3023 8.75 14.75 8.75C14.1977 8.75 13.75 8.30228 13.75 7.75C13.75 7.19772 14.1977 6.75 14.75 6.75C15.3023 6.75 15.75 7.19772 15.75 7.75Z" fill="#0056BD"/>
<path d="M15.75 11.75C15.75 12.3023 15.3023 12.75 14.75 12.75C14.1977 12.75 13.75 12.3023 13.75 11.75C13.75 11.1977 14.1977 10.75 14.75 10.75C15.3023 10.75 15.75 11.1977 15.75 11.75Z" fill="#0056BD"/>
<path d="M5.75 15.75C5.75 16.3023 5.30228 16.75 4.75 16.75C4.19772 16.75 3.75 16.3023 3.75 15.75C3.75 15.1977 4.19772 14.75 4.75 14.75C5.30228 14.75 5.75 15.1977 5.75 15.75Z" fill="#0056BD"/>
</svg>
