<svg width="20" height="20" viewBox="0 0 20 20" fill="none" xmlns="http://www.w3.org/2000/svg">
<path d="M7.75 18.75V18V18V18.75ZM6.75 18.75V19.5V19.5V18.75ZM0.75 12.75H1.5H0.75ZM0.75 6.75H2.38419e-07H0.75ZM6.75 0.75V0V0.75ZM7.75 0.75V1.5V0.75ZM0.811558 4.96783L0.0707918 4.8505L0.0707917 4.8505L0.811558 4.96783ZM4.96783 0.811558L5.08515 1.55232L4.96783 0.811558ZM4.96783 18.6884L4.8505 19.4292H4.8505L4.96783 18.6884ZM0.811558 14.5322L0.0707913 14.6495L0.0707914 14.6495L0.811558 14.5322ZM11.2004 18.35C11.5316 18.1013 11.5984 17.6311 11.3497 17.2999C11.1009 16.9687 10.6308 16.9019 10.2996 17.1507L11.2004 18.35ZM10.2996 2.34931C10.6308 2.59808 11.1009 2.53126 11.3497 2.20007C11.5984 1.86888 11.5316 1.39873 11.2004 1.14996L10.2996 2.34931ZM4.75 9C4.33579 9 4 9.33578 4 9.75C4 10.1642 4.33579 10.5 4.75 10.5V9ZM17.75 9.75V10.5V10.5V9.75ZM15.216 5.16232C14.8914 4.90497 14.4197 4.95946 14.1623 5.28403C13.905 5.6086 13.9595 6.08034 14.284 6.33768L15.216 5.16232ZM16.513 7.14785L16.9789 6.56016V6.56016L16.513 7.14785ZM16.513 12.3522L16.9789 12.9398V12.9398L16.513 12.3522ZM14.284 13.1623C13.9595 13.4197 13.905 13.8914 14.1623 14.216C14.4197 14.5405 14.8914 14.595 15.216 14.3377L14.284 13.1623ZM18.7301 9.49933L19.4708 9.38133V9.38133L18.7301 9.49933ZM18.7301 10.0007L19.4708 10.1187V10.1187L18.7301 10.0007ZM18.75 9.75H19.5H18.75ZM7.75 18H6.75V19.5H7.75V18ZM1.5 12.75L1.5 6.75H2.38419e-07L0 12.75H1.5ZM6.75 1.5L7.75 1.5V5.96046e-08L6.75 0V1.5ZM1.5 6.75C1.5 5.79233 1.50233 5.40082 1.55232 5.08515L0.0707917 4.8505C-0.0023272 5.31216 2.98023e-07 5.84965 2.38419e-07 6.75H1.5ZM6.75 0C5.84966 -5.96046e-08 5.31216 -0.00232768 4.8505 0.070792L5.08515 1.55232C5.40082 1.50233 5.79233 1.5 6.75 1.5V0ZM1.55232 5.08515C1.84035 3.26661 3.26661 1.84035 5.08515 1.55232L4.8505 0.070792C2.39012 0.460478 0.460478 2.39012 0.0707918 4.8505L1.55232 5.08515ZM6.75 18C5.79233 18 5.40082 17.9977 5.08515 17.9477L4.8505 19.4292C5.31216 19.5023 5.84965 19.5 6.75 19.5V18ZM0 12.75C-5.96046e-08 13.6503 -0.00232762 14.1878 0.0707913 14.6495L1.55232 14.4148C1.50233 14.0992 1.5 13.7077 1.5 12.75H0ZM5.08515 17.9477C3.26661 17.6596 1.84035 16.2334 1.55232 14.4148L0.0707914 14.6495C0.460478 17.1099 2.39012 19.0395 4.8505 19.4292L5.08515 17.9477ZM7.75 19.5C9.04358 19.5 10.2394 19.0719 11.2004 18.35L10.2996 17.1507C9.58933 17.6842 8.70763 18 7.75 18V19.5ZM7.75 1.5C8.70763 1.5 9.58933 1.81583 10.2996 2.34931L11.2004 1.14996C10.2394 0.428064 9.04358 1.19209e-07 7.75 5.96046e-08V1.5ZM4.75 10.5L17.75 10.5V9L4.75 9V10.5ZM14.284 6.33768L16.047 7.73553L16.9789 6.56016L15.216 5.16232L14.284 6.33768ZM16.047 11.7645L14.284 13.1623L15.216 14.3377L16.9789 12.9398L16.047 11.7645ZM16.047 7.73553C16.7643 8.30429 17.2512 8.69177 17.5789 9.01822C17.9032 9.34132 17.9725 9.51116 17.9895 9.61734L19.4708 9.38133C19.3794 8.80816 19.0432 8.35962 18.6375 7.95551C18.2352 7.55475 17.6676 7.10616 16.9789 6.56016L16.047 7.73553ZM16.9789 12.9398C17.6675 12.3938 18.2352 11.9453 18.6375 11.5445C19.0432 11.1404 19.3794 10.6918 19.4708 10.1187L17.9895 9.88266C17.9725 9.98884 17.9032 10.1587 17.5789 10.4818C17.2512 10.8082 16.7643 11.1957 16.047 11.7645L16.9789 12.9398ZM17.9895 9.61734C17.9965 9.66168 18 9.70594 18 9.75H19.5C19.5 9.62662 19.4902 9.50344 19.4708 9.38133L17.9895 9.61734ZM18 9.75C18 9.79406 17.9965 9.83832 17.9895 9.88266L19.4708 10.1187C19.4902 9.99656 19.5 9.87339 19.5 9.75H18ZM17.75 10.5H18.75V9H17.75V10.5Z" fill="#0056BD"/>
</svg>
