<svg width="16" height="16" viewBox="0 0 16 16" fill="none" xmlns="http://www.w3.org/2000/svg">
<path d="M2.70755 13.4778L2.9985 13.0773H2.9985L2.70755 13.4778ZM1.97011 12.7403L1.56964 13.0313H1.56964L1.97011 12.7403ZM11.9594 13.4778L11.6685 13.0773V13.0773L11.9594 13.4778ZM12.6969 12.7403L12.2964 12.4494H12.2964L12.6969 12.7403ZM1.97011 3.48842L1.56964 3.19747H1.56964L1.97011 3.48842ZM2.70755 2.75098L2.9985 3.15144L2.9985 3.15144L2.70755 2.75098ZM6.0061 2.61414C6.27946 2.61086 6.4984 2.3866 6.49513 2.11324C6.49185 1.83988 6.26759 1.62093 5.99423 1.62421L6.0061 2.61414ZM13.8237 9.45364C13.8269 9.18027 13.608 8.95602 13.3346 8.95274C13.0613 8.94946 12.837 9.16841 12.8337 9.44177L13.8237 9.45364ZM7.8652 10.784L7.81054 10.292L7.8652 10.784ZM5.11868 10.5857L4.76866 10.9357H4.76866L5.11868 10.5857ZM4.92036 7.83916L5.41233 7.89383L4.92036 7.83916ZM5.6851 6.24803L5.33508 5.89801V5.89801L5.6851 6.24803ZM5.09545 6.94397L4.64931 6.72955V6.72955L5.09545 6.94397ZM9.45634 10.0193L9.80635 10.3693V10.3693L9.45634 10.0193ZM8.76039 10.6089L8.97482 11.0551L8.97482 11.0551L8.76039 10.6089ZM7.3335 13.6194C6.07256 13.6194 5.16662 13.6187 4.46499 13.5427C3.77262 13.4677 3.33816 13.3241 2.9985 13.0773L2.41659 13.8782C2.95315 14.2681 3.58175 14.4428 4.35835 14.5269C5.12569 14.61 6.09461 14.6094 7.3335 14.6094V13.6194ZM0.838496 8.11437C0.838496 9.35325 0.837817 10.3222 0.920952 11.0895C1.00509 11.8661 1.17981 12.4947 1.56964 13.0313L2.37057 12.4494C2.12379 12.1097 1.98021 11.6752 1.90519 10.9829C1.82918 10.2812 1.8285 9.37531 1.8285 8.11437H0.838496ZM2.9985 13.0773C2.75754 12.9022 2.54564 12.6903 2.37057 12.4494L1.56964 13.0313C1.80577 13.3563 2.09159 13.6421 2.41659 13.8782L2.9985 13.0773ZM7.3335 14.6094C8.57238 14.6094 9.54131 14.61 10.3086 14.5269C11.0852 14.4428 11.7138 14.2681 12.2504 13.8782L11.6685 13.0773C11.3288 13.3241 10.8944 13.4677 10.202 13.5427C9.50037 13.6187 8.59443 13.6194 7.3335 13.6194V14.6094ZM12.2964 12.4494C12.1214 12.6903 11.9095 12.9022 11.6685 13.0773L12.2504 13.8782C12.5754 13.6421 12.8612 13.3563 13.0974 13.0313L12.2964 12.4494ZM1.8285 8.11437C1.8285 6.85343 1.82918 5.94749 1.90519 5.24586C1.98021 4.5535 2.12379 4.11904 2.37057 3.77937L1.56964 3.19747C1.17981 3.73402 1.00509 4.36263 0.920952 5.13923C0.837817 5.90656 0.838496 6.87549 0.838496 8.11437H1.8285ZM2.41659 2.35052C2.09159 2.58665 1.80577 2.87246 1.56964 3.19747L2.37057 3.77937C2.54564 3.53841 2.75754 3.32651 2.9985 3.15144L2.41659 2.35052ZM5.99423 1.62421C4.3763 1.6436 3.26758 1.73224 2.41659 2.35052L2.9985 3.15144C3.55622 2.74624 4.33914 2.63412 6.0061 2.61414L5.99423 1.62421ZM12.8337 9.44177C12.8137 11.1087 12.7016 11.8916 12.2964 12.4494L13.0974 13.0313C13.7156 12.1803 13.8043 11.0716 13.8237 9.45364L12.8337 9.44177ZM12.6875 6.08805L9.10632 9.66925L9.80635 10.3693L13.3876 6.78808L12.6875 6.08805ZM6.03512 6.59805L9.61632 3.01685L8.91628 2.31681L5.33508 5.89801L6.03512 6.59805ZM7.81054 10.292C7.0307 10.3787 6.4994 10.4365 6.1045 10.4237C5.72287 10.4114 5.56753 10.3345 5.4687 10.2357L4.76866 10.9357C5.12297 11.29 5.57642 11.3972 6.07254 11.4132C6.55538 11.4288 7.17077 11.3592 7.91987 11.276L7.81054 10.292ZM4.42839 7.7845C4.34516 8.53359 4.27555 9.14898 4.29115 9.63182C4.30717 10.1279 4.41435 10.5814 4.76866 10.9357L5.4687 10.2357C5.36986 10.1368 5.29295 9.9815 5.28063 9.59987C5.26788 9.20496 5.32569 8.67366 5.41233 7.89383L4.42839 7.7845ZM5.33508 5.89801C5.03142 6.20167 4.79262 6.43136 4.64931 6.72955L5.5416 7.1584C5.59501 7.04727 5.68373 6.94943 6.03512 6.59805L5.33508 5.89801ZM5.41233 7.89383C5.46721 7.39993 5.48818 7.26953 5.5416 7.1584L4.64931 6.72955C4.50599 7.02773 4.47581 7.35769 4.42839 7.7845L5.41233 7.89383ZM9.10632 9.66925C8.75493 10.0206 8.65709 10.1094 8.54596 10.1628L8.97482 11.0551C9.27301 10.9117 9.5027 10.6729 9.80635 10.3693L9.10632 9.66925ZM7.91987 11.276C8.34667 11.2286 8.67663 11.1984 8.97482 11.0551L8.54596 10.1628C8.43483 10.2162 8.30444 10.2372 7.81054 10.292L7.91987 11.276ZM12.6875 3.01685C13.1419 3.47119 13.4467 3.77747 13.644 4.03612C13.8326 4.28335 13.8759 4.42805 13.8759 4.55245H14.8659C14.8659 4.12456 14.6869 3.7709 14.4311 3.43561C14.184 3.11174 13.8221 2.75136 13.3876 2.31681L12.6875 3.01685ZM13.3876 6.78808C13.8221 6.35353 14.184 5.99315 14.4311 5.66929C14.6869 5.334 14.8659 4.98034 14.8659 4.55245H13.8759C13.8759 4.67684 13.8326 4.82155 13.644 5.06877C13.4467 5.32742 13.1419 5.63371 12.6875 6.08805L13.3876 6.78808ZM13.3876 2.31681C12.953 1.88226 12.5926 1.5204 12.2688 1.27329C11.9335 1.01748 11.5798 0.838496 11.1519 0.838496V1.8285C11.2763 1.8285 11.421 1.87174 11.6682 2.06037C11.9269 2.25771 12.2332 2.56251 12.6875 3.01685L13.3876 2.31681ZM9.61632 3.01685C10.0707 2.56251 10.3769 2.25771 10.6356 2.06036C10.8828 1.87174 11.0275 1.8285 11.1519 1.8285V0.838496C10.724 0.838496 10.3704 1.01748 10.0351 1.27329C9.71121 1.5204 9.35083 1.88226 8.91628 2.31681L9.61632 3.01685ZM13.3876 6.08805L9.61632 2.31681L8.91628 3.01685L12.6875 6.78808L13.3876 6.08805Z" fill="#0056BD"/>
</svg>
