<svg width="24" height="24" viewBox="0 0 24 24" fill="none" xmlns="http://www.w3.org/2000/svg">
<path d="M12 1.74707C14.2215 1.7411 16.3544 2.61814 17.9297 4.18457C19.5051 5.75136 20.3943 7.88069 20.4004 10.1025V10.126C20.9282 10.3071 21.3911 10.6419 21.7256 11.0908C22.0827 11.5701 22.2755 12.1523 22.2754 12.75V13.5C22.2754 13.8643 22.2029 14.2249 22.0635 14.5615C21.924 14.8982 21.7196 15.2042 21.4619 15.4619C21.2042 15.7196 20.8982 15.924 20.5615 16.0635C20.2249 16.2029 19.8643 16.2754 19.5 16.2754H18.75C18.6108 16.2754 18.4774 16.2195 18.3789 16.1211C18.2805 16.0226 18.2246 15.8892 18.2246 15.75V10.5C18.2246 10.3608 18.2805 10.2274 18.3789 10.1289C18.4774 10.0304 18.6108 9.97461 18.75 9.97461H19.3467C19.3107 8.07776 18.5421 6.2667 17.1963 4.9248C15.8201 3.55276 13.955 2.78327 12.0117 2.78613C10.0683 2.78906 8.20511 3.56419 6.83301 4.94043C5.49647 6.28115 4.73408 8.0857 4.69824 9.97461H5.25C5.38924 9.97461 5.52264 10.0304 5.62109 10.1289C5.71955 10.2274 5.77539 10.3608 5.77539 10.5V15.75C5.77539 16.8042 6.194 17.8151 6.93945 18.5605C7.68491 19.306 8.69577 19.7246 9.75 19.7246H9.97461V18.375C9.97461 18.2358 10.0305 18.1024 10.1289 18.0039C10.2274 17.9054 10.3608 17.8496 10.5 17.8496H13.5C13.6392 17.8496 13.7726 17.9054 13.8711 18.0039C13.9695 18.1024 14.0254 18.2358 14.0254 18.375V18.75C14.0254 19.2871 13.8114 19.8019 13.4316 20.1816C13.0519 20.5614 12.5371 20.7754 12 20.7754H9.75C8.48497 20.7743 7.26677 20.2954 6.33887 19.4355C5.44521 18.6074 4.88487 17.484 4.75781 16.2754H4.5C3.76403 16.2754 3.0585 15.9823 2.53809 15.4619C2.01767 14.9415 1.72461 14.236 1.72461 13.5V12.75C1.72485 12.1441 1.92354 11.5547 2.29004 11.0723C2.63316 10.6206 3.10671 10.2877 3.64453 10.1133C3.64761 7.9041 4.52365 5.78493 6.08203 4.21777C7.64882 2.64239 9.77815 1.75315 12 1.74707ZM11.0254 19.7246H12C12.2586 19.7246 12.5066 19.6223 12.6895 19.4395C12.8364 19.2925 12.9302 19.1032 12.9619 18.9004H11.0254V19.7246ZM4.5 11.0254C4.0425 11.0254 3.60377 11.2068 3.28027 11.5303C2.95678 11.8538 2.77539 12.2925 2.77539 12.75V13.5C2.77539 13.7265 2.81956 13.9509 2.90625 14.1602C2.99294 14.3694 3.12009 14.5595 3.28027 14.7197C3.44045 14.8799 3.63056 15.0071 3.83984 15.0938C4.04913 15.1804 4.27347 15.2246 4.5 15.2246H4.72461V11.0254H4.5ZM19.2754 15.2246H19.5C19.7265 15.2246 19.9509 15.1804 20.1602 15.0938C20.3694 15.0071 20.5595 14.8799 20.7197 14.7197C20.8799 14.5595 21.0071 14.3694 21.0938 14.1602C21.1804 13.9509 21.2246 13.7265 21.2246 13.5V12.75C21.2246 12.2925 21.0432 11.8538 20.7197 11.5303C20.3962 11.2068 19.9575 11.0254 19.5 11.0254H19.2754V15.2246Z" fill="#0056BD" stroke="#0056BD" stroke-width="0.3"/>
</svg>
